<svg viewBox="0 0 64 64" fill="#f5ddab" xmlns="http://www.w3.org/2000/svg"><g id="Tools"><path d="m57.454 46.148a7.976 7.976 0 0 0 -7.211-2.2 1 1 0 0 1 -.9-.274l-29.02-29.02a1 1 0 0 1 -.274-.9 8.005 8.005 0 0 0 -9.913-9.283l4.892 4.9a1 1 0 0 1 .274.9l-.7 3.54a1 1 0 0 1 -.788.787l-3.54.7a1 1 0 0 1 -.9-.274l-4.9-4.891a8.005 8.005 0 0 0 9.283 9.913.971.971 0 0 1 .193-.019 1 1 0 0 1 .707.293l29.02 29.02a1 1 0 0 1 .274.9 8 8 0 0 0 13.5 7.211 7.981 7.981 0 0 0 0-11.3zm-39.767-27.048 1.413-1.413 1.415 1.413-1.415 1.415zm24.606 24.607-22-22 1.414-1.414 22 22zm2.807 2.808-1.413-1.415 1.413-1.413 1.415 1.413zm10.781 9.366-5.577 1.494-4.082-4.082 1.494-5.576 5.576-1.495 4.083 4.083z"/><path d="m26.979 45.536.708.707 1.413-1.414-9.9-9.9-1.414 1.414.707.707a3 3 0 0 1 0 4.242 3 3 0 0 1 -4.243 0l-9.191 9.193a5.006 5.006 0 0 0 0 7.072l1.414 1.414a5 5 0 0 0 7.071 0l9.192-9.193a3 3 0 1 1 4.243-4.242zm-21.686 7.757 10-10 1.414 1.414-10 10zm5.414 5.414-1.414-1.414 10-10 1.414 1.414z"/><path d="m49.35 49.35-.897 3.346 2.449 2.449 3.347-.896.897-3.347-2.451-2.449z"/><path d="m25.109 36.362h3.115v2.002h-3.115z" transform="matrix(.707 -.707 .707 .707 -18.61 29.803)"/><path d="m36.97 28.476 15.559-15.559 3.383-.663 3.628-6.039-1.727-1.727-5.966 3.558-.741 3.462-15.552 15.552z"/></g></svg>
